<svg xmlns="http://www.w3.org/2000/svg" xmlns:xlink="http://www.w3.org/1999/xlink" contentStyleType="text/css" data-diagram-type="DESCRIPTION" height="711px" preserveAspectRatio="none" style="width:2288px;height:711px;background:#FFFFFF;" version="1.1" viewBox="0 0 2288 711" width="2288px" zoomAndPan="magnify"><title>Rancher Management Architecture</title><defs/><g><g class="title" data-source-line="17"><text fill="#000000" font-family="sans-serif" font-size="14" font-weight="bold" lengthAdjust="spacing" textLength="276.0078" x="998.9961" y="22.9951">Rancher Management Architecture</text></g><!--cluster RancherMgmt--><g class="cluster" data-entity="RancherMgmt" data-source-line="19" data-uid="ent0002" id="cluster_RancherMgmt"><path d="M8.5,43.2969 L255.5596,43.2969 A3.75,3.75 0 0 1 258.0596,45.7969 L265.0596,65.5938 L2278.5,65.5938 A2.5,2.5 0 0 1 2281,68.0938 L2281,600.5869 A2.5,2.5 0 0 1 2278.5,603.0869 L8.5,603.0869 A2.5,2.5 0 0 1 6,600.5869 L6,45.7969 A2.5,2.5 0 0 1 8.5,43.2969" fill="none" style="stroke:#000000;stroke-width:1.5;"/><line style="stroke:#000000;stroke-width:1.5;" x1="6" x2="265.0596" y1="65.5938" y2="65.5938"/><text fill="#000000" font-family="sans-serif" font-size="14" font-weight="bold" lengthAdjust="spacing" textLength="246.0596" x="10" y="58.292">Rancher Management Platform</text></g><!--cluster Users--><g class="cluster" data-entity="Users" data-source-line="21" data-uid="ent0003" id="cluster_Users"><path d="M1236.5,86.2969 L1281.9336,86.2969 A3.75,3.75 0 0 1 1284.4336,88.7969 L1291.4336,108.5938 L1547.5,108.5938 A2.5,2.5 0 0 1 1550,111.0938 L1550,187.3969 A2.5,2.5 0 0 1 1547.5,189.8969 L1236.5,189.8969 A2.5,2.5 0 0 1 1234,187.3969 L1234,88.7969 A2.5,2.5 0 0 1 1236.5,86.2969" fill="none" style="stroke:#000000;stroke-width:1.5;"/><line style="stroke:#000000;stroke-width:1.5;" x1="1234" x2="1291.4336" y1="108.5938" y2="108.5938"/><text fill="#000000" font-family="sans-serif" font-size="14" font-weight="bold" lengthAdjust="spacing" textLength="44.4336" x="1238" y="101.292">Users</text></g><!--cluster Fleets--><g class="cluster" data-entity="Fleets" data-source-line="33" data-uid="ent0010" id="cluster_Fleets"><path d="M32.5,213.8969 L173.623,213.8969 A3.75,3.75 0 0 1 176.123,216.3969 L183.123,236.1938 L2116.5,236.1938 A2.5,2.5 0 0 1 2119,238.6938 L2119,576.5869 A2.5,2.5 0 0 1 2116.5,579.0869 L32.5,579.0869 A2.5,2.5 0 0 1 30,576.5869 L30,216.3969 A2.5,2.5 0 0 1 32.5,213.8969" fill="none" style="stroke:#000000;stroke-width:1.5;"/><line style="stroke:#000000;stroke-width:1.5;" x1="30" x2="183.123" y1="236.1938" y2="236.1938"/><text fill="#000000" font-family="sans-serif" font-size="14" font-weight="bold" lengthAdjust="spacing" textLength="140.123" x="34" y="228.892">Fleet Workspaces</text></g><!--cluster Fleet1--><g class="cluster" data-entity="Fleet1" data-source-line="34" data-uid="ent0011" id="cluster_Fleet1"><path d="M56.5,256.8969 L252.625,256.8969 A3.75,3.75 0 0 1 255.125,259.3969 L262.125,279.1938 L712.5,279.1938 A2.5,2.5 0 0 1 715,281.6938 L715,552.5869 A2.5,2.5 0 0 1 712.5,555.0869 L56.5,555.0869 A2.5,2.5 0 0 1 54,552.5869 L54,259.3969 A2.5,2.5 0 0 1 56.5,256.8969" fill="none" style="stroke:#000000;stroke-width:1.5;"/><line style="stroke:#000000;stroke-width:1.5;" x1="54" x2="262.125" y1="279.1938" y2="279.1938"/><text fill="#000000" font-family="sans-serif" font-size="14" font-weight="bold" lengthAdjust="spacing" textLength="195.125" x="58" y="271.892">User1's Fleet Workspace</text></g><!--cluster GitOps1--><g class="cluster" data-entity="GitOps1" data-source-line="39" data-uid="ent0016" id="cluster_GitOps1"><path d="M80.5,299.8969 L204.0137,299.8969 A3.75,3.75 0 0 1 206.5137,302.3969 L213.5137,322.1938 L321.5,322.1938 A2.5,2.5 0 0 1 324,324.6938 L324,400.9869 A2.5,2.5 0 0 1 321.5,403.4869 L80.5,403.4869 A2.5,2.5 0 0 1 78,400.9869 L78,302.3969 A2.5,2.5 0 0 1 80.5,299.8969" fill="none" style="stroke:#000000;stroke-width:1.5;"/><line style="stroke:#000000;stroke-width:1.5;" x1="78" x2="213.5137" y1="322.1938" y2="322.1938"/><text fill="#000000" font-family="sans-serif" font-size="14" font-weight="bold" lengthAdjust="spacing" textLength="122.5137" x="82" y="314.892">GitOps Projects</text></g><!--cluster Clusters1--><g class="cluster" data-entity="Clusters1" data-source-line="45" data-uid="ent0019" id="cluster_Clusters1"><path d="M85.5,427.4869 L185.0947,427.4869 A3.75,3.75 0 0 1 187.5947,429.9869 L194.5947,449.7838 L315.5,449.7838 A2.5,2.5 0 0 1 318,452.2838 L318,528.5869 A2.5,2.5 0 0 1 315.5,531.0869 L85.5,531.0869 A2.5,2.5 0 0 1 83,528.5869 L83,429.9869 A2.5,2.5 0 0 1 85.5,427.4869" fill="none" style="stroke:#000000;stroke-width:1.5;"/><line style="stroke:#000000;stroke-width:1.5;" x1="83" x2="194.5947" y1="449.7838" y2="449.7838"/><text fill="#000000" font-family="sans-serif" font-size="14" font-weight="bold" lengthAdjust="spacing" textLength="98.5947" x="87" y="442.482">K8s Clusters</text></g><!--cluster Fleet2--><g class="cluster" data-entity="Fleet2" data-source-line="51" data-uid="ent0022" id="cluster_Fleet2"><path d="M1314.5,256.8969 L1510.625,256.8969 A3.75,3.75 0 0 1 1513.125,259.3969 L1520.125,279.1938 L2092.5,279.1938 A2.5,2.5 0 0 1 2095,281.6938 L2095,552.5869 A2.5,2.5 0 0 1 2092.5,555.0869 L1314.5,555.0869 A2.5,2.5 0 0 1 1312,552.5869 L1312,259.3969 A2.5,2.5 0 0 1 1314.5,256.8969" fill="none" style="stroke:#000000;stroke-width:1.5;"/><line style="stroke:#000000;stroke-width:1.5;" x1="1312" x2="1520.125" y1="279.1938" y2="279.1938"/><text fill="#000000" font-family="sans-serif" font-size="14" font-weight="bold" lengthAdjust="spacing" textLength="195.125" x="1316" y="271.892">User2's Fleet Workspace</text></g><!--cluster GitOps2--><g class="cluster" data-entity="GitOps2" data-source-line="56" data-uid="ent0027" id="cluster_GitOps2"><path d="M1338.5,299.8969 L1462.0137,299.8969 A3.75,3.75 0 0 1 1464.5137,302.3969 L1471.5137,322.1938 L1703.5,322.1938 A2.5,2.5 0 0 1 1706,324.6938 L1706,400.9869 A2.5,2.5 0 0 1 1703.5,403.4869 L1338.5,403.4869 A2.5,2.5 0 0 1 1336,400.9869 L1336,302.3969 A2.5,2.5 0 0 1 1338.5,299.8969" fill="none" style="stroke:#000000;stroke-width:1.5;"/><line style="stroke:#000000;stroke-width:1.5;" x1="1336" x2="1471.5137" y1="322.1938" y2="322.1938"/><text fill="#000000" font-family="sans-serif" font-size="14" font-weight="bold" lengthAdjust="spacing" textLength="122.5137" x="1340" y="314.892">GitOps Projects</text></g><!--cluster Clusters2--><g class="cluster" data-entity="Clusters2" data-source-line="63" data-uid="ent0031" id="cluster_Clusters2"><path d="M1465.5,427.4869 L1565.0947,427.4869 A3.75,3.75 0 0 1 1567.5947,429.9869 L1574.5947,449.7838 L1576.5,449.7838 A2.5,2.5 0 0 1 1579,452.2838 L1579,528.5869 A2.5,2.5 0 0 1 1576.5,531.0869 L1465.5,531.0869 A2.5,2.5 0 0 1 1463,528.5869 L1463,429.9869 A2.5,2.5 0 0 1 1465.5,427.4869" fill="none" style="stroke:#000000;stroke-width:1.5;"/><line style="stroke:#000000;stroke-width:1.5;" x1="1463" x2="1574.5947" y1="449.7838" y2="449.7838"/><text fill="#000000" font-family="sans-serif" font-size="14" font-weight="bold" lengthAdjust="spacing" textLength="98.5947" x="1467" y="442.482">K8s Clusters</text></g><!--cluster Fleet3--><g class="cluster" data-entity="Fleet3" data-source-line="68" data-uid="ent0033" id="cluster_Fleet3"><path d="M741.5,256.8969 L937.625,256.8969 A3.75,3.75 0 0 1 940.125,259.3969 L947.125,279.1938 L1285.5,279.1938 A2.5,2.5 0 0 1 1288,281.6938 L1288,552.5869 A2.5,2.5 0 0 1 1285.5,555.0869 L741.5,555.0869 A2.5,2.5 0 0 1 739,552.5869 L739,259.3969 A2.5,2.5 0 0 1 741.5,256.8969" fill="none" style="stroke:#000000;stroke-width:1.5;"/><line style="stroke:#000000;stroke-width:1.5;" x1="739" x2="947.125" y1="279.1938" y2="279.1938"/><text fill="#000000" font-family="sans-serif" font-size="14" font-weight="bold" lengthAdjust="spacing" textLength="195.125" x="743" y="271.892">User3's Fleet Workspace</text></g><!--cluster GitOps3--><g class="cluster" data-entity="GitOps3" data-source-line="73" data-uid="ent0038" id="cluster_GitOps3"><path d="M765.5,299.8969 L889.0137,299.8969 A3.75,3.75 0 0 1 891.5137,302.3969 L898.5137,322.1938 L898.5,322.1938 A2.5,2.5 0 0 1 901,324.6938 L901,400.9869 A2.5,2.5 0 0 1 898.5,403.4869 L765.5,403.4869 A2.5,2.5 0 0 1 763,400.9869 L763,302.3969 A2.5,2.5 0 0 1 765.5,299.8969" fill="none" style="stroke:#000000;stroke-width:1.5;"/><line style="stroke:#000000;stroke-width:1.5;" x1="763" x2="898.5137" y1="322.1938" y2="322.1938"/><text fill="#000000" font-family="sans-serif" font-size="14" font-weight="bold" lengthAdjust="spacing" textLength="122.5137" x="767" y="314.892">GitOps Projects</text></g><!--cluster Clusters3--><g class="cluster" data-entity="Clusters3" data-source-line="78" data-uid="ent0040" id="cluster_Clusters3"><path d="M767.5,427.4869 L867.0947,427.4869 A3.75,3.75 0 0 1 869.5947,429.9869 L876.5947,449.7838 L996.5,449.7838 A2.5,2.5 0 0 1 999,452.2838 L999,528.5869 A2.5,2.5 0 0 1 996.5,531.0869 L767.5,531.0869 A2.5,2.5 0 0 1 765,528.5869 L765,429.9869 A2.5,2.5 0 0 1 767.5,427.4869" fill="none" style="stroke:#000000;stroke-width:1.5;"/><line style="stroke:#000000;stroke-width:1.5;" x1="765" x2="876.5947" y1="449.7838" y2="449.7838"/><text fill="#000000" font-family="sans-serif" font-size="14" font-weight="bold" lengthAdjust="spacing" textLength="98.5947" x="769" y="442.482">K8s Clusters</text></g><!--entity Spacer1--><g class="entity" data-entity="Spacer1" data-source-line="28" data-uid="ent0007" id="entity_Spacer1"><rect fill="none" height="20" rx="2.5" ry="2.5" style="stroke:#2F4F4F;stroke-width:0.5;" width="20" x="2135" y="351.1969"/></g><!--entity Spacer2--><g class="entity" data-entity="Spacer2" data-source-line="29" data-uid="ent0008" id="entity_Spacer2"><rect fill="none" height="20" rx="2.5" ry="2.5" style="stroke:#2F4F4F;stroke-width:0.5;" width="20" x="2245" y="351.1969"/></g><!--entity Spacer3--><g class="entity" data-entity="Spacer3" data-source-line="30" data-uid="ent0009" id="entity_Spacer3"><rect fill="none" height="20" rx="2.5" ry="2.5" style="stroke:#2F4F4F;stroke-width:0.5;" width="20" x="2190" y="351.1969"/></g><!--entity User1--><g class="entity" data-entity="User1" data-source-line="22" data-uid="ent0004" id="entity_User1"><rect fill="#98FB98" height="52.5938" rx="2.5" ry="2.5" style="stroke:#2F4F4F;stroke-width:0.5;" width="71.041" x="1250.48" y="121.2969"/><text fill="#000000" font-family="sans-serif" font-size="14" font-style="italic" lengthAdjust="spacing" textLength="49.041" x="1261.48" y="144.292">&#171;User&#187;</text><text fill="#000000" font-family="sans-serif" font-size="14" lengthAdjust="spacing" textLength="45.2676" x="1263.3667" y="160.5889">User 1</text></g><!--entity User2--><g class="entity" data-entity="User2" data-source-line="23" data-uid="ent0005" id="entity_User2"><rect fill="#98FB98" height="52.5938" rx="2.5" ry="2.5" style="stroke:#2F4F4F;stroke-width:0.5;" width="71.041" x="1462.48" y="121.2969"/><text fill="#000000" font-family="sans-serif" font-size="14" font-style="italic" lengthAdjust="spacing" textLength="49.041" x="1473.48" y="144.292">&#171;User&#187;</text><text fill="#000000" font-family="sans-serif" font-size="14" lengthAdjust="spacing" textLength="45.2676" x="1475.3667" y="160.5889">User 2</text></g><!--entity User3--><g class="entity" data-entity="User3" data-source-line="24" data-uid="ent0006" id="entity_User3"><rect fill="#98FB98" height="52.5938" rx="2.5" ry="2.5" style="stroke:#2F4F4F;stroke-width:0.5;" width="71.041" x="1356.48" y="121.2969"/><text fill="#000000" font-family="sans-serif" font-size="14" font-style="italic" lengthAdjust="spacing" textLength="49.041" x="1367.48" y="144.292">&#171;User&#187;</text><text fill="#000000" font-family="sans-serif" font-size="14" lengthAdjust="spacing" textLength="45.2676" x="1369.3667" y="160.5889">User 3</text></g><!--entity User1Workspace--><g class="entity" data-entity="User1Workspace" data-source-line="35" data-uid="ent0012" id="entity_User1Workspace"><rect fill="#87CEEB" height="52.5938" rx="2.5" ry="2.5" style="stroke:#2F4F4F;stroke-width:0.5;" width="143.2109" x="342.39" y="334.8969"/><text fill="#000000" font-family="sans-serif" font-size="14" font-style="italic" lengthAdjust="spacing" textLength="51.7891" x="388.1009" y="357.892">&#171;Fleet&#187;</text><text fill="#000000" font-family="sans-serif" font-size="14" lengthAdjust="spacing" textLength="123.2109" x="352.39" y="374.1889">User1-Workspace</text></g><g class="entity" data-entity="GMN13" data-source-line="36" data-uid="ent0014" id="entity_GMN13"><path d="M520.59,333.4969 L520.59,357.7469 L485.87,361.7469 L520.59,365.7469 L520.59,388.8953 A0,0 0 0 0 520.59,388.8953 L699.4054,388.8953 A0,0 0 0 0 699.4054,388.8953 L699.4054,343.4969 L689.4054,333.4969 L520.59,333.4969 A0,0 0 0 0 520.59,333.4969" fill="#FAFAD2" style="stroke:#FF8C00;stroke-width:0.5;"/><path d="M689.4054,333.4969 L689.4054,343.4969 L699.4054,343.4969 L689.4054,333.4969" fill="#FAFAD2" style="stroke:#FF8C00;stroke-width:0.5;"/><text fill="#000000" font-family="sans-serif" font-size="13" lengthAdjust="spacing" textLength="107.4658" x="526.59" y="350.5638">Owned by User1</text><text fill="#000000" font-family="sans-serif" font-size="13" lengthAdjust="spacing" textLength="157.8154" x="526.59" y="365.6966">User2 has admin access</text><text fill="#000000" font-family="sans-serif" font-size="13" lengthAdjust="spacing" textLength="147.0181" x="526.59" y="380.8294">User3 has view access</text></g><!--entity GitRepo1_1--><g class="entity" data-entity="GitRepo1_1" data-source-line="40" data-uid="ent0017" id="entity_GitRepo1_1"><rect fill="#FFA07A" height="52.5938" rx="2.5" ry="2.5" style="stroke:#2F4F4F;stroke-width:0.5;" width="89.3779" x="94.31" y="334.8969"/><text fill="#000000" font-family="sans-serif" font-size="14" font-style="italic" lengthAdjust="spacing" textLength="64.5586" x="106.7197" y="357.892">&#171;GitOps&#187;</text><text fill="#000000" font-family="sans-serif" font-size="14" lengthAdjust="spacing" textLength="69.3779" x="104.31" y="374.1889">GitRepo 1</text></g><!--entity GitRepo1_2--><g class="entity" data-entity="GitRepo1_2" data-source-line="41" data-uid="ent0018" id="entity_GitRepo1_2"><rect fill="#FFA07A" height="52.5938" rx="2.5" ry="2.5" style="stroke:#2F4F4F;stroke-width:0.5;" width="89.3779" x="218.31" y="334.8969"/><text fill="#000000" font-family="sans-serif" font-size="14" font-style="italic" lengthAdjust="spacing" textLength="64.5586" x="230.7197" y="357.892">&#171;GitOps&#187;</text><text fill="#000000" font-family="sans-serif" font-size="14" lengthAdjust="spacing" textLength="69.3779" x="228.31" y="374.1889">GitRepo 2</text></g><!--entity ClusterA1--><g class="entity" data-entity="ClusterA1" data-source-line="46" data-uid="ent0020" id="entity_ClusterA1"><rect fill="#FFB6C1" height="52.5938" rx="2.5" ry="2.5" style="stroke:#2F4F4F;stroke-width:0.5;" width="83.7178" x="99.14" y="462.4869"/><text fill="#000000" font-family="sans-serif" font-size="14" font-style="italic" lengthAdjust="spacing" textLength="42.5127" x="119.7425" y="485.482">&#171;K8s&#187;</text><text fill="#000000" font-family="sans-serif" font-size="14" lengthAdjust="spacing" textLength="63.7178" x="109.14" y="501.7789">Cluster A</text></g><!--entity ClusterB1--><g class="entity" data-entity="ClusterB1" data-source-line="47" data-uid="ent0021" id="entity_ClusterB1"><rect fill="#FFB6C1" height="52.5938" rx="2.5" ry="2.5" style="stroke:#2F4F4F;stroke-width:0.5;" width="83.7451" x="218.13" y="462.4869"/><text fill="#000000" font-family="sans-serif" font-size="14" font-style="italic" lengthAdjust="spacing" textLength="42.5127" x="238.7462" y="485.482">&#171;K8s&#187;</text><text fill="#000000" font-family="sans-serif" font-size="14" lengthAdjust="spacing" textLength="63.7451" x="228.13" y="501.7789">Cluster B</text></g><!--entity User2Workspace--><g class="entity" data-entity="User2Workspace" data-source-line="52" data-uid="ent0023" id="entity_User2Workspace"><rect fill="#87CEEB" height="52.5938" rx="2.5" ry="2.5" style="stroke:#2F4F4F;stroke-width:0.5;" width="143.2109" x="1724.39" y="334.8969"/><text fill="#000000" font-family="sans-serif" font-size="14" font-style="italic" lengthAdjust="spacing" textLength="51.7891" x="1770.1009" y="357.892">&#171;Fleet&#187;</text><text fill="#000000" font-family="sans-serif" font-size="14" lengthAdjust="spacing" textLength="123.2109" x="1734.39" y="374.1889">User2-Workspace</text></g><g class="entity" data-entity="GMN24" data-source-line="53" data-uid="ent0025" id="entity_GMN24"><path d="M1902.83,341.0569 L1902.83,357.7469 L1868.06,361.7469 L1902.83,365.7469 L1902.83,381.3225 A0,0 0 0 0 1902.83,381.3225 L2079.1698,381.3225 A0,0 0 0 0 2079.1698,381.3225 L2079.1698,351.0569 L2069.1698,341.0569 L1902.83,341.0569 A0,0 0 0 0 1902.83,341.0569" fill="#FAFAD2" style="stroke:#FF8C00;stroke-width:0.5;"/><path d="M2069.1698,341.0569 L2069.1698,351.0569 L2079.1698,351.0569 L2069.1698,341.0569" fill="#FAFAD2" style="stroke:#FF8C00;stroke-width:0.5;"/><text fill="#000000" font-family="sans-serif" font-size="13" lengthAdjust="spacing" textLength="107.4658" x="1908.83" y="358.1238">Owned by User2</text><text fill="#000000" font-family="sans-serif" font-size="13" lengthAdjust="spacing" textLength="155.3398" x="1908.83" y="373.2566">User3 has editor access</text></g><!--entity GitRepo2_1--><g class="entity" data-entity="GitRepo2_1" data-source-line="57" data-uid="ent0028" id="entity_GitRepo2_1"><rect fill="#FFA07A" height="52.5938" rx="2.5" ry="2.5" style="stroke:#2F4F4F;stroke-width:0.5;" width="89.3779" x="1352.31" y="334.8969"/><text fill="#000000" font-family="sans-serif" font-size="14" font-style="italic" lengthAdjust="spacing" textLength="64.5586" x="1364.7197" y="357.892">&#171;GitOps&#187;</text><text fill="#000000" font-family="sans-serif" font-size="14" lengthAdjust="spacing" textLength="69.3779" x="1362.31" y="374.1889">GitRepo 1</text></g><!--entity GitRepo2_2--><g class="entity" data-entity="GitRepo2_2" data-source-line="58" data-uid="ent0029" id="entity_GitRepo2_2"><rect fill="#FFA07A" height="52.5938" rx="2.5" ry="2.5" style="stroke:#2F4F4F;stroke-width:0.5;" width="89.3779" x="1476.31" y="334.8969"/><text fill="#000000" font-family="sans-serif" font-size="14" font-style="italic" lengthAdjust="spacing" textLength="64.5586" x="1488.7197" y="357.892">&#171;GitOps&#187;</text><text fill="#000000" font-family="sans-serif" font-size="14" lengthAdjust="spacing" textLength="69.3779" x="1486.31" y="374.1889">GitRepo 2</text></g><!--entity GitRepo2_3--><g class="entity" data-entity="GitRepo2_3" data-source-line="59" data-uid="ent0030" id="entity_GitRepo2_3"><rect fill="#FFA07A" height="52.5938" rx="2.5" ry="2.5" style="stroke:#2F4F4F;stroke-width:0.5;" width="89.3779" x="1600.31" y="334.8969"/><text fill="#000000" font-family="sans-serif" font-size="14" font-style="italic" lengthAdjust="spacing" textLength="64.5586" x="1612.7197" y="357.892">&#171;GitOps&#187;</text><text fill="#000000" font-family="sans-serif" font-size="14" lengthAdjust="spacing" textLength="69.3779" x="1610.31" y="374.1889">GitRepo 3</text></g><!--entity ClusterC2--><g class="entity" data-entity="ClusterC2" data-source-line="64" data-uid="ent0032" id="entity_ClusterC2"><rect fill="#FFB6C1" height="52.5938" rx="2.5" ry="2.5" style="stroke:#2F4F4F;stroke-width:0.5;" width="83.916" x="1479.04" y="462.4869"/><text fill="#000000" font-family="sans-serif" font-size="14" font-style="italic" lengthAdjust="spacing" textLength="42.5127" x="1499.7417" y="485.482">&#171;K8s&#187;</text><text fill="#000000" font-family="sans-serif" font-size="14" lengthAdjust="spacing" textLength="63.916" x="1489.04" y="501.7789">Cluster C</text></g><!--entity User3Workspace--><g class="entity" data-entity="User3Workspace" data-source-line="69" data-uid="ent0034" id="entity_User3Workspace"><rect fill="#87CEEB" height="52.5938" rx="2.5" ry="2.5" style="stroke:#2F4F4F;stroke-width:0.5;" width="143.2109" x="917.39" y="334.8969"/><text fill="#000000" font-family="sans-serif" font-size="14" font-style="italic" lengthAdjust="spacing" textLength="51.7891" x="963.1009" y="357.892">&#171;Fleet&#187;</text><text fill="#000000" font-family="sans-serif" font-size="14" lengthAdjust="spacing" textLength="123.2109" x="927.39" y="374.1889">User3-Workspace</text></g><g class="entity" data-entity="GMN35" data-source-line="70" data-uid="ent0036" id="entity_GMN35"><path d="M1095.83,341.0569 L1095.83,357.7469 L1061.06,361.7469 L1095.83,365.7469 L1095.83,381.3225 A0,0 0 0 0 1095.83,381.3225 L1272.1698,381.3225 A0,0 0 0 0 1272.1698,381.3225 L1272.1698,351.0569 L1262.1698,341.0569 L1095.83,341.0569 A0,0 0 0 0 1095.83,341.0569" fill="#FAFAD2" style="stroke:#FF8C00;stroke-width:0.5;"/><path d="M1262.1698,341.0569 L1262.1698,351.0569 L1272.1698,351.0569 L1262.1698,341.0569" fill="#FAFAD2" style="stroke:#FF8C00;stroke-width:0.5;"/><text fill="#000000" font-family="sans-serif" font-size="13" lengthAdjust="spacing" textLength="107.4658" x="1101.83" y="358.1238">Owned by User3</text><text fill="#000000" font-family="sans-serif" font-size="13" lengthAdjust="spacing" textLength="155.3398" x="1101.83" y="373.2566">User1 has editor access</text></g><!--entity GitRepo3_1--><g class="entity" data-entity="GitRepo3_1" data-source-line="74" data-uid="ent0039" id="entity_GitRepo3_1"><rect fill="#FFA07A" height="52.5938" rx="2.5" ry="2.5" style="stroke:#2F4F4F;stroke-width:0.5;" width="89.3779" x="786.31" y="334.8969"/><text fill="#000000" font-family="sans-serif" font-size="14" font-style="italic" lengthAdjust="spacing" textLength="64.5586" x="798.7197" y="357.892">&#171;GitOps&#187;</text><text fill="#000000" font-family="sans-serif" font-size="14" lengthAdjust="spacing" textLength="69.3779" x="796.31" y="374.1889">GitRepo 1</text></g><!--entity ClusterD3--><g class="entity" data-entity="ClusterD3" data-source-line="79" data-uid="ent0041" id="entity_ClusterD3"><rect fill="#FFB6C1" height="52.5938" rx="2.5" ry="2.5" style="stroke:#2F4F4F;stroke-width:0.5;" width="84.9209" x="898.54" y="462.4869"/><text fill="#000000" font-family="sans-serif" font-size="14" font-style="italic" lengthAdjust="spacing" textLength="42.5127" x="919.7441" y="485.482">&#171;K8s&#187;</text><text fill="#000000" font-family="sans-serif" font-size="14" lengthAdjust="spacing" textLength="64.9209" x="908.54" y="501.7789">Cluster D</text></g><!--entity ClusterE3--><g class="entity" data-entity="ClusterE3" data-source-line="80" data-uid="ent0042" id="entity_ClusterE3"><rect fill="#FFB6C1" height="52.5938" rx="2.5" ry="2.5" style="stroke:#2F4F4F;stroke-width:0.5;" width="82.9863" x="780.51" y="462.4869"/><text fill="#000000" font-family="sans-serif" font-size="14" font-style="italic" lengthAdjust="spacing" textLength="42.5127" x="800.7468" y="485.482">&#171;K8s&#187;</text><text fill="#000000" font-family="sans-serif" font-size="14" lengthAdjust="spacing" textLength="62.9863" x="790.51" y="501.7789">Cluster E</text></g><g class="entity" data-entity="GMN60" data-source-line="111" data-uid="ent0061" id="entity_GMN60"><path d="M659.77,619.0869 L659.77,704.7509 A0,0 0 0 0 659.77,704.7509 L984.2324,704.7509 A0,0 0 0 0 984.2324,704.7509 L984.2324,629.0869 L974.2324,619.0869 L826,619.0869 L822,515.4569 L818,619.0869 L659.77,619.0869 A0,0 0 0 0 659.77,619.0869" fill="#FAFAD2" style="stroke:#FF8C00;stroke-width:0.5;"/><path d="M974.2324,619.0869 L974.2324,629.0869 L984.2324,629.0869 L974.2324,619.0869" fill="#FAFAD2" style="stroke:#FF8C00;stroke-width:0.5;"/><text fill="#000000" font-family="sans-serif" font-size="13" lengthAdjust="spacing" textLength="81.5103" x="665.77" y="636.1538">Implements:</text><text fill="#000000" font-family="sans-serif" font-size="13" lengthAdjust="spacing" textLength="303.4624" x="665.77" y="651.2866">- Automatic Fleet Workspace creation per user</text><text fill="#000000" font-family="sans-serif" font-size="13" lengthAdjust="spacing" textLength="255.8804" x="665.77" y="666.4194">- Role-based access across workspaces</text><text fill="#000000" font-family="sans-serif" font-size="13" lengthAdjust="spacing" textLength="285.4604" x="665.77" y="681.5522">- GitOps-based deployments to K8s clusters</text><text fill="#000000" font-family="sans-serif" font-size="13" lengthAdjust="spacing" textLength="197.7358" x="665.77" y="696.685">- CRD for provisioning clusters</text></g><!--link User1 to Spacer1--><!--link User2 to Spacer2--><!--link User3 to Spacer3--><!--link User1 to User1Workspace--><g class="link" data-entity-1="User1" data-entity-2="User1Workspace" data-source-line="92" data-uid="lnk46" id="link_User1_User1Workspace"><path d="M1250.13,139.7469 C1081.79,139.7469 378.2,139.7469 378.2,139.7469 C378.2,139.7469 378.2,269.5869 378.2,328.4769" fill="none" id="User1-to-User1Workspace" style="stroke:#008000;stroke-width:2;"/><polygon fill="#008000" points="378.2,334.4769,382.2,325.4769,378.2,329.4769,374.2,325.4769,378.2,334.4769" style="stroke:#008000;stroke-width:2;"/><text fill="#000000" font-family="sans-serif" font-size="13" lengthAdjust="spacing" textLength="33.5981" x="682.8" y="135.8138">owns</text></g><!--link User2 to User2Workspace--><g class="link" data-entity-1="User2" data-entity-2="User2Workspace" data-source-line="93" data-uid="lnk47" id="link_User2_User2Workspace"><path d="M1533.99,156.7469 C1617.98,156.7469 1819.87,156.7469 1819.87,156.7469 C1819.87,156.7469 1819.87,273.0469 1819.87,328.4669" fill="none" id="User2-to-User2Workspace" style="stroke:#008000;stroke-width:2;"/><polygon fill="#008000" points="1819.87,334.4669,1823.87,325.4669,1819.87,329.4669,1815.87,325.4669,1819.87,334.4669" style="stroke:#008000;stroke-width:2;"/><text fill="#000000" font-family="sans-serif" font-size="13" lengthAdjust="spacing" textLength="33.5981" x="1731.79" y="152.8138">owns</text></g><!--link User3 to User3Workspace--><g class="link" data-entity-1="User3" data-entity-2="User3Workspace" data-source-line="94" data-uid="lnk48" id="link_User3_User3Workspace"><path d="M1384.9,174.1769 C1384.9,220.4069 1384.9,310.7469 1384.9,310.7469 C1384.9,310.7469 1012.87,310.7469 1012.87,310.7469 C1012.87,310.7469 1012.87,316.3969 1012.87,328.4969" fill="none" id="User3-to-User3Workspace" style="stroke:#008000;stroke-width:2;"/><polygon fill="#008000" points="1012.87,334.4969,1016.87,325.4969,1012.87,329.4969,1008.87,325.4969,1012.87,334.4969" style="stroke:#008000;stroke-width:2;"/><text fill="#000000" font-family="sans-serif" font-size="13" lengthAdjust="spacing" textLength="33.5981" x="1221.3" y="306.8138">owns</text></g><!--link User1 to User3Workspace--><g class="link" data-entity-1="User1" data-entity-2="User3Workspace" data-source-line="97" data-uid="lnk49" id="link_User1_User3Workspace"><path d="M1250.13,156.7469 C1166.4,156.7469 965.13,156.7469 965.13,156.7469 C965.13,156.7469 965.13,273.0469 965.13,328.4669" fill="none" id="User1-to-User3Workspace" style="stroke:#0000FF;stroke-width:1;"/><polygon fill="#0000FF" points="965.13,334.4669,969.13,325.4669,965.13,329.4669,961.13,325.4669,965.13,334.4669" style="stroke:#0000FF;stroke-width:1;"/><text fill="#000000" font-family="sans-serif" font-size="13" lengthAdjust="spacing" textLength="113.3057" x="904.77" y="152.8138">has editor access</text></g><!--link User2 to User1Workspace--><g class="link" data-entity-1="User2" data-entity-2="User1Workspace" data-source-line="98" data-uid="lnk50" id="link_User2_User1Workspace"><path d="M1469.4,174.0569 C1469.4,194.6469 1469.4,219.7469 1469.4,219.7469 C1469.4,219.7469 449.8,219.7469 449.8,219.7469 C449.8,219.7469 449.8,287.6169 449.8,328.5869" fill="none" id="User2-to-User1Workspace" style="stroke:#800080;stroke-width:1;"/><polygon fill="#800080" points="449.8,334.5869,453.8,325.5869,449.8,329.5869,445.8,325.5869,449.8,334.5869" style="stroke:#800080;stroke-width:1;"/><text fill="#000000" font-family="sans-serif" font-size="13" lengthAdjust="spacing" textLength="115.7813" x="809.03" y="215.8138">has admin access</text></g><!--link User3 to User1Workspace--><g class="link" data-entity-1="User3" data-entity-2="User1Workspace" data-source-line="99" data-uid="lnk51" id="link_User3_User1Workspace"><path d="M1370.69,174.1869 C1370.69,185.7669 1370.69,196.7469 1370.69,196.7469 C1370.69,196.7469 414,196.7469 414,196.7469 C414,196.7469 414,281.8069 414,328.4069" fill="none" id="User3-to-User1Workspace" style="stroke:#808080;stroke-width:1;"/><polygon fill="#808080" points="414,334.4069,418,325.4069,414,329.4069,410,325.4069,414,334.4069" style="stroke:#808080;stroke-width:1;"/><text fill="#000000" font-family="sans-serif" font-size="13" lengthAdjust="spacing" textLength="104.9839" x="729.79" y="192.8138">has view access</text></g><!--link User3 to User2Workspace--><g class="link" data-entity-1="User3" data-entity-2="User2Workspace" data-source-line="100" data-uid="lnk52" id="link_User3_User2Workspace"><path d="M1399.1,174.1469 C1399.1,215.0369 1399.1,288.7469 1399.1,288.7469 C1399.1,288.7469 1772.13,288.7469 1772.13,288.7469 C1772.13,288.7469 1772.13,307.9469 1772.13,328.6269" fill="none" id="User3-to-User2Workspace" style="stroke:#0000FF;stroke-width:1;"/><polygon fill="#0000FF" points="1772.13,334.6269,1776.13,325.6269,1772.13,329.6269,1768.13,325.6269,1772.13,334.6269" style="stroke:#0000FF;stroke-width:1;"/><text fill="#000000" font-family="sans-serif" font-size="13" lengthAdjust="spacing" textLength="113.3057" x="1437.26" y="284.8138">has editor access</text></g><!--link GitRepo1_1 to ClusterA1--><g class="link" data-entity-1="GitRepo1_1" data-entity-2="ClusterA1" data-source-line="103" data-uid="lnk53" id="link_GitRepo1_1_ClusterA1"><path d="M141,387.9369 C141,409.7169 141,434.3069 141,456.0769" fill="none" id="GitRepo1_1-to-ClusterA1" style="stroke:#FFA500;stroke-width:1;"/><polygon fill="#FFA500" points="141,462.0769,145,453.0769,141,457.0769,137,453.0769,141,462.0769" style="stroke:#FFA500;stroke-width:1;"/><text fill="#000000" font-family="sans-serif" font-size="13" lengthAdjust="spacing" textLength="67.7168" x="73" y="421.0738">deploys to</text></g><!--link GitRepo1_2 to ClusterB1--><g class="link" data-entity-1="GitRepo1_2" data-entity-2="ClusterB1" data-source-line="104" data-uid="lnk54" id="link_GitRepo1_2_ClusterB1"><path d="M260.09,387.9369 C260.09,409.7169 260.09,434.3069 260.09,456.0769" fill="none" id="GitRepo1_2-to-ClusterB1" style="stroke:#FFA500;stroke-width:1;"/><polygon fill="#FFA500" points="260.09,462.0769,264.09,453.0769,260.09,457.0769,256.09,453.0769,260.09,462.0769" style="stroke:#FFA500;stroke-width:1;"/><text fill="#000000" font-family="sans-serif" font-size="13" lengthAdjust="spacing" textLength="67.7168" x="192.09" y="421.0738">deploys to</text></g><!--link GitRepo2_1 to ClusterC2--><g class="link" data-entity-1="GitRepo2_1" data-entity-2="ClusterC2" data-source-line="105" data-uid="lnk55" id="link_GitRepo2_1_ClusterC2"><path d="M1397,387.8269 C1397,425.4869 1397,489.7469 1397,489.7469 C1397,489.7469 1436.75,489.7469 1472.67,489.7469" fill="none" id="GitRepo2_1-to-ClusterC2" style="stroke:#FFA500;stroke-width:1;"/><polygon fill="#FFA500" points="1478.67,489.7469,1469.67,485.7469,1473.67,489.7469,1469.67,493.7469,1478.67,489.7469" style="stroke:#FFA500;stroke-width:1;"/><text fill="#000000" font-family="sans-serif" font-size="13" lengthAdjust="spacing" textLength="67.7168" x="1329" y="475.6938">deploys to</text></g><!--link GitRepo2_2 to ClusterC2--><g class="link" data-entity-1="GitRepo2_2" data-entity-2="ClusterC2" data-source-line="106" data-uid="lnk56" id="link_GitRepo2_2_ClusterC2"><path d="M1521,387.9369 C1521,409.7169 1521,434.3069 1521,456.0769" fill="none" id="GitRepo2_2-to-ClusterC2" style="stroke:#FFA500;stroke-width:1;"/><polygon fill="#FFA500" points="1521,462.0769,1525,453.0769,1521,457.0769,1517,453.0769,1521,462.0769" style="stroke:#FFA500;stroke-width:1;"/><text fill="#000000" font-family="sans-serif" font-size="13" lengthAdjust="spacing" textLength="67.7168" x="1453" y="421.0738">deploys to</text></g><!--link GitRepo2_3 to ClusterC2--><g class="link" data-entity-1="GitRepo2_3" data-entity-2="ClusterC2" data-source-line="107" data-uid="lnk57" id="link_GitRepo2_3_ClusterC2"><path d="M1645,387.8269 C1645,425.4869 1645,489.7469 1645,489.7469 C1645,489.7469 1605.25,489.7469 1569.33,489.7469" fill="none" id="GitRepo2_3-to-ClusterC2" style="stroke:#FFA500;stroke-width:1;"/><polygon fill="#FFA500" points="1563.33,489.7469,1572.33,493.7469,1568.33,489.7469,1572.33,485.7469,1563.33,489.7469" style="stroke:#FFA500;stroke-width:1;"/><text fill="#000000" font-family="sans-serif" font-size="13" lengthAdjust="spacing" textLength="67.7168" x="1577" y="475.6938">deploys to</text></g><!--link GitRepo3_1 to ClusterD3--><g class="link" data-entity-1="GitRepo3_1" data-entity-2="ClusterD3" data-source-line="108" data-uid="lnk58" id="link_GitRepo3_1_ClusterD3"><path d="M869.59,387.8269 C869.59,425.4869 869.59,489.7469 869.59,489.7469 C869.59,489.7469 877.02,489.7469 892.22,489.7469" fill="none" id="GitRepo3_1-to-ClusterD3" style="stroke:#FFA500;stroke-width:1;"/><polygon fill="#FFA500" points="898.22,489.7469,889.22,485.7469,893.22,489.7469,889.22,493.7469,898.22,489.7469" style="stroke:#FFA500;stroke-width:1;"/><text fill="#000000" font-family="sans-serif" font-size="13" lengthAdjust="spacing" textLength="67.7168" x="801.59" y="449.1738">deploys to</text></g><!--link GitRepo3_1 to ClusterE3--><g class="link" data-entity-1="GitRepo3_1" data-entity-2="ClusterE3" data-source-line="109" data-uid="lnk59" id="link_GitRepo3_1_ClusterE3"><path d="M824.9,387.9369 C824.9,409.7169 824.9,434.3069 824.9,456.0769" fill="none" id="GitRepo3_1-to-ClusterE3" style="stroke:#FFA500;stroke-width:1;"/><polygon fill="#FFA500" points="824.9,462.0769,828.9,453.0769,824.9,457.0769,820.9,453.0769,824.9,462.0769" style="stroke:#FFA500;stroke-width:1;"/><text fill="#000000" font-family="sans-serif" font-size="13" lengthAdjust="spacing" textLength="67.7168" x="756.9" y="421.0738">deploys to</text></g><!--SRC=[dLTDR-Cs4BthLmns3xdK1vEN8bW4y4SQBDf50WV5Oj4j2bhYsbpBf43ISOqY_xr3Kb8ecJ8Y7vB0dFU6y_4udfYTa1NJR0-QvvR9JSdXlmnWplBTHgk3B1QgLFhJfpyDrtTtyCHA_g0vbodCRoNd5a7FkzEyFF0Kv47OnyeWvW-nsTfdLkvLqjNllxQW9o5tsMkMcJPKgMmooe1_K6N1vKeLttXPggE3ALrm7I1BfdUF6XFbNP-baDoUAWvAswsA3ElU7L-tmlB8tjQjVyjpoIpMYfsop0gBTLqncM-vXYzCiWtVSsbXfdFdBhS7pREimglG0XyIo2VqzaFf_GTWfl7qPREtlWuthZi6IdRY6Z-sVlonPmI0mqBKQG-0QOkOGjFe992qG78PI5iWZO6l-EEYXLbH2Ba1_g_L30o6os7DxH5b1GSVA9C579NUUPl9EZU0T_xiB1ZmHtGX4QQnICCuyauSxUDSk5xMKJYXpjxMLZfWlhOOxzCVDbNlD6LwKrlVA6-CQSqug-jqqaNxi_O8sWTOi_qpqUv9WFhH0z_2ur7o0jQdOFWkGrktw9OLUo61vPY62UVKdxy8VgoFwnlgFpVXLKEbrK-Cs03IcopRijNOjWmrvwdc-8J2sLl-dGgWSSKhLSkr_ZJznscscIgNQAHB8-UqrrvME8CWBm_6EaM-9oL7MDG4VrlpOI2ZsWop63np2VdnTuaoZodpFYLa4dwVYuzS4XyP4Xz9Y8-C4HyP4X-9HSOBON60Zf4PkKvcP8JCo7Ko8ocP9McqIwFNgPDSfKvoMPsB6BmWewH6BqcD3acD9gH6nqYD3acD1gbDhvKQlKvgT8JKQ4fgxsa-lQhvz7Bpbp5uITypckvZoZqTrCkhMy1kOA4visuRUE7QYfoLpK9mWbn9YVwTCQm5Lc6oByA8DLxeOTfaeQ6JlxQYmBtlxybTinjauIljt4AoC6_EBTH5v5SOpN7X4agQhS2U7eNTWjroeUErfBdvuyPjnB-iSV5qhlhVjEeeJHjB0ajIM9h6qZxMLr0PCt4LghNS3Vujp3KkvIb7vu-XZROwwAhagQpwcq8SDJiDCU8TeYN4SP6BSM6szIihU5MgarkDlIoQnv15Um5wLdxJTxxRRzVRckfeMRGEfD3p99eC-5wGD9gCGjCHQ3eGoPAEGTztqPcVfsjbhThVmkSzzj-N-VQxdC3iWAUehRm_rY7txrX9g527JemElb8bdwoPmGbSIvFbJgtHAtAmqDCQsEjiFEeSTh5Q0luZv4QpcmHAkl7G0Fu7]--></g></svg>