<svg xmlns="http://www.w3.org/2000/svg" xmlns:xlink="http://www.w3.org/1999/xlink" contentStyleType="text/css" data-diagram-type="DESCRIPTION" height="711px" preserveAspectRatio="none" style="width:2150px;height:711px;background:#FFFFFF;" version="1.1" viewBox="0 0 2150 711" width="2150px" zoomAndPan="magnify"><title>Gorizond Management Architecture</title><defs/><g><g class="title" data-source-line="17"><text fill="#000000" font-family="sans-serif" font-size="14" font-weight="bold" lengthAdjust="spacing" textLength="281.7158" x="927.1421" y="22.9951">Gorizond Management Architecture</text></g><!--cluster RancherMgmt--><g class="cluster" data-entity="RancherMgmt" data-source-line="19" data-uid="ent0002" id="cluster_RancherMgmt"><path d="M8.5,43.2969 L255.5596,43.2969 A3.75,3.75 0 0 1 258.0596,45.7969 L265.0596,65.5938 L2140.5,65.5938 A2.5,2.5 0 0 1 2143,68.0938 L2143,600.5869 A2.5,2.5 0 0 1 2140.5,603.0869 L8.5,603.0869 A2.5,2.5 0 0 1 6,600.5869 L6,45.7969 A2.5,2.5 0 0 1 8.5,43.2969" fill="none" style="stroke:#000000;stroke-width:1.5;"/><line style="stroke:#000000;stroke-width:1.5;" x1="6" x2="265.0596" y1="65.5938" y2="65.5938"/><text fill="#000000" font-family="sans-serif" font-size="14" font-weight="bold" lengthAdjust="spacing" textLength="246.0596" x="10" y="58.292">Rancher Management Platform</text></g><!--cluster Users--><g class="cluster" data-entity="Users" data-source-line="21" data-uid="ent0003" id="cluster_Users"><path d="M727.5,86.2969 L772.9336,86.2969 A3.75,3.75 0 0 1 775.4336,88.7969 L782.4336,108.5938 L1038.5,108.5938 A2.5,2.5 0 0 1 1041,111.0938 L1041,187.3969 A2.5,2.5 0 0 1 1038.5,189.8969 L727.5,189.8969 A2.5,2.5 0 0 1 725,187.3969 L725,88.7969 A2.5,2.5 0 0 1 727.5,86.2969" fill="none" style="stroke:#000000;stroke-width:1.5;"/><line style="stroke:#000000;stroke-width:1.5;" x1="725" x2="782.4336" y1="108.5938" y2="108.5938"/><text fill="#000000" font-family="sans-serif" font-size="14" font-weight="bold" lengthAdjust="spacing" textLength="44.4336" x="729" y="101.292">Users</text></g><!--cluster Fleets--><g class="cluster" data-entity="Fleets" data-source-line="28" data-uid="ent0007" id="cluster_Fleets"><path d="M32.5,213.8969 L173.623,213.8969 A3.75,3.75 0 0 1 176.123,216.3969 L183.123,236.1938 L2116.5,236.1938 A2.5,2.5 0 0 1 2119,238.6938 L2119,576.5869 A2.5,2.5 0 0 1 2116.5,579.0869 L32.5,579.0869 A2.5,2.5 0 0 1 30,576.5869 L30,216.3969 A2.5,2.5 0 0 1 32.5,213.8969" fill="none" style="stroke:#000000;stroke-width:1.5;"/><line style="stroke:#000000;stroke-width:1.5;" x1="30" x2="183.123" y1="236.1938" y2="236.1938"/><text fill="#000000" font-family="sans-serif" font-size="14" font-weight="bold" lengthAdjust="spacing" textLength="140.123" x="34" y="228.892">Fleet Workspaces</text></g><!--cluster Fleet1--><g class="cluster" data-entity="Fleet1" data-source-line="29" data-uid="ent0008" id="cluster_Fleet1"><path d="M56.5,256.8969 L252.625,256.8969 A3.75,3.75 0 0 1 255.125,259.3969 L262.125,279.1938 L712.5,279.1938 A2.5,2.5 0 0 1 715,281.6938 L715,552.5869 A2.5,2.5 0 0 1 712.5,555.0869 L56.5,555.0869 A2.5,2.5 0 0 1 54,552.5869 L54,259.3969 A2.5,2.5 0 0 1 56.5,256.8969" fill="none" style="stroke:#000000;stroke-width:1.5;"/><line style="stroke:#000000;stroke-width:1.5;" x1="54" x2="262.125" y1="279.1938" y2="279.1938"/><text fill="#000000" font-family="sans-serif" font-size="14" font-weight="bold" lengthAdjust="spacing" textLength="195.125" x="58" y="271.892">User1's Fleet Workspace</text></g><!--cluster GitOps1--><g class="cluster" data-entity="GitOps1" data-source-line="34" data-uid="ent0013" id="cluster_GitOps1"><path d="M80.5,299.8969 L204.0137,299.8969 A3.75,3.75 0 0 1 206.5137,302.3969 L213.5137,322.1938 L321.5,322.1938 A2.5,2.5 0 0 1 324,324.6938 L324,400.9869 A2.5,2.5 0 0 1 321.5,403.4869 L80.5,403.4869 A2.5,2.5 0 0 1 78,400.9869 L78,302.3969 A2.5,2.5 0 0 1 80.5,299.8969" fill="none" style="stroke:#000000;stroke-width:1.5;"/><line style="stroke:#000000;stroke-width:1.5;" x1="78" x2="213.5137" y1="322.1938" y2="322.1938"/><text fill="#000000" font-family="sans-serif" font-size="14" font-weight="bold" lengthAdjust="spacing" textLength="122.5137" x="82" y="314.892">GitOps Projects</text></g><!--cluster Clusters1--><g class="cluster" data-entity="Clusters1" data-source-line="40" data-uid="ent0016" id="cluster_Clusters1"><path d="M85.5,427.4869 L185.0947,427.4869 A3.75,3.75 0 0 1 187.5947,429.9869 L194.5947,449.7838 L315.5,449.7838 A2.5,2.5 0 0 1 318,452.2838 L318,528.5869 A2.5,2.5 0 0 1 315.5,531.0869 L85.5,531.0869 A2.5,2.5 0 0 1 83,528.5869 L83,429.9869 A2.5,2.5 0 0 1 85.5,427.4869" fill="none" style="stroke:#000000;stroke-width:1.5;"/><line style="stroke:#000000;stroke-width:1.5;" x1="83" x2="194.5947" y1="449.7838" y2="449.7838"/><text fill="#000000" font-family="sans-serif" font-size="14" font-weight="bold" lengthAdjust="spacing" textLength="98.5947" x="87" y="442.482">K8s Clusters</text></g><!--cluster Fleet2--><g class="cluster" data-entity="Fleet2" data-source-line="46" data-uid="ent0019" id="cluster_Fleet2"><path d="M1314.5,256.8969 L1510.625,256.8969 A3.75,3.75 0 0 1 1513.125,259.3969 L1520.125,279.1938 L2092.5,279.1938 A2.5,2.5 0 0 1 2095,281.6938 L2095,552.5869 A2.5,2.5 0 0 1 2092.5,555.0869 L1314.5,555.0869 A2.5,2.5 0 0 1 1312,552.5869 L1312,259.3969 A2.5,2.5 0 0 1 1314.5,256.8969" fill="none" style="stroke:#000000;stroke-width:1.5;"/><line style="stroke:#000000;stroke-width:1.5;" x1="1312" x2="1520.125" y1="279.1938" y2="279.1938"/><text fill="#000000" font-family="sans-serif" font-size="14" font-weight="bold" lengthAdjust="spacing" textLength="195.125" x="1316" y="271.892">User2's Fleet Workspace</text></g><!--cluster GitOps2--><g class="cluster" data-entity="GitOps2" data-source-line="51" data-uid="ent0024" id="cluster_GitOps2"><path d="M1338.5,299.8969 L1462.0137,299.8969 A3.75,3.75 0 0 1 1464.5137,302.3969 L1471.5137,322.1938 L1703.5,322.1938 A2.5,2.5 0 0 1 1706,324.6938 L1706,400.9869 A2.5,2.5 0 0 1 1703.5,403.4869 L1338.5,403.4869 A2.5,2.5 0 0 1 1336,400.9869 L1336,302.3969 A2.5,2.5 0 0 1 1338.5,299.8969" fill="none" style="stroke:#000000;stroke-width:1.5;"/><line style="stroke:#000000;stroke-width:1.5;" x1="1336" x2="1471.5137" y1="322.1938" y2="322.1938"/><text fill="#000000" font-family="sans-serif" font-size="14" font-weight="bold" lengthAdjust="spacing" textLength="122.5137" x="1340" y="314.892">GitOps Projects</text></g><!--cluster Clusters2--><g class="cluster" data-entity="Clusters2" data-source-line="58" data-uid="ent0028" id="cluster_Clusters2"><path d="M1465.5,427.4869 L1565.0947,427.4869 A3.75,3.75 0 0 1 1567.5947,429.9869 L1574.5947,449.7838 L1576.5,449.7838 A2.5,2.5 0 0 1 1579,452.2838 L1579,528.5869 A2.5,2.5 0 0 1 1576.5,531.0869 L1465.5,531.0869 A2.5,2.5 0 0 1 1463,528.5869 L1463,429.9869 A2.5,2.5 0 0 1 1465.5,427.4869" fill="none" style="stroke:#000000;stroke-width:1.5;"/><line style="stroke:#000000;stroke-width:1.5;" x1="1463" x2="1574.5947" y1="449.7838" y2="449.7838"/><text fill="#000000" font-family="sans-serif" font-size="14" font-weight="bold" lengthAdjust="spacing" textLength="98.5947" x="1467" y="442.482">K8s Clusters</text></g><!--cluster Fleet3--><g class="cluster" data-entity="Fleet3" data-source-line="63" data-uid="ent0030" id="cluster_Fleet3"><path d="M741.5,256.8969 L937.625,256.8969 A3.75,3.75 0 0 1 940.125,259.3969 L947.125,279.1938 L1285.5,279.1938 A2.5,2.5 0 0 1 1288,281.6938 L1288,552.5869 A2.5,2.5 0 0 1 1285.5,555.0869 L741.5,555.0869 A2.5,2.5 0 0 1 739,552.5869 L739,259.3969 A2.5,2.5 0 0 1 741.5,256.8969" fill="none" style="stroke:#000000;stroke-width:1.5;"/><line style="stroke:#000000;stroke-width:1.5;" x1="739" x2="947.125" y1="279.1938" y2="279.1938"/><text fill="#000000" font-family="sans-serif" font-size="14" font-weight="bold" lengthAdjust="spacing" textLength="195.125" x="743" y="271.892">User3's Fleet Workspace</text></g><!--cluster GitOps3--><g class="cluster" data-entity="GitOps3" data-source-line="68" data-uid="ent0035" id="cluster_GitOps3"><path d="M765.5,299.8969 L889.0137,299.8969 A3.75,3.75 0 0 1 891.5137,302.3969 L898.5137,322.1938 L898.5,322.1938 A2.5,2.5 0 0 1 901,324.6938 L901,400.9869 A2.5,2.5 0 0 1 898.5,403.4869 L765.5,403.4869 A2.5,2.5 0 0 1 763,400.9869 L763,302.3969 A2.5,2.5 0 0 1 765.5,299.8969" fill="none" style="stroke:#000000;stroke-width:1.5;"/><line style="stroke:#000000;stroke-width:1.5;" x1="763" x2="898.5137" y1="322.1938" y2="322.1938"/><text fill="#000000" font-family="sans-serif" font-size="14" font-weight="bold" lengthAdjust="spacing" textLength="122.5137" x="767" y="314.892">GitOps Projects</text></g><!--cluster Clusters3--><g class="cluster" data-entity="Clusters3" data-source-line="73" data-uid="ent0037" id="cluster_Clusters3"><path d="M766.5,427.4869 L866.0947,427.4869 A3.75,3.75 0 0 1 868.5947,429.9869 L875.5947,449.7838 L995.5,449.7838 A2.5,2.5 0 0 1 998,452.2838 L998,528.5869 A2.5,2.5 0 0 1 995.5,531.0869 L766.5,531.0869 A2.5,2.5 0 0 1 764,528.5869 L764,429.9869 A2.5,2.5 0 0 1 766.5,427.4869" fill="none" style="stroke:#000000;stroke-width:1.5;"/><line style="stroke:#000000;stroke-width:1.5;" x1="764" x2="875.5947" y1="449.7838" y2="449.7838"/><text fill="#000000" font-family="sans-serif" font-size="14" font-weight="bold" lengthAdjust="spacing" textLength="98.5947" x="768" y="442.482">K8s Clusters</text></g><!--entity User1--><g class="entity" data-entity="User1" data-source-line="22" data-uid="ent0004" id="entity_User1"><rect fill="#98FB98" height="52.5938" rx="2.5" ry="2.5" style="stroke:#2F4F4F;stroke-width:0.5;" width="71.041" x="741.48" y="121.2969"/><text fill="#000000" font-family="sans-serif" font-size="14" font-style="italic" lengthAdjust="spacing" textLength="49.041" x="752.48" y="144.292">&#171;User&#187;</text><text fill="#000000" font-family="sans-serif" font-size="14" lengthAdjust="spacing" textLength="45.2676" x="754.3667" y="160.5889">User 1</text></g><!--entity User2--><g class="entity" data-entity="User2" data-source-line="23" data-uid="ent0005" id="entity_User2"><rect fill="#98FB98" height="52.5938" rx="2.5" ry="2.5" style="stroke:#2F4F4F;stroke-width:0.5;" width="71.041" x="847.48" y="121.2969"/><text fill="#000000" font-family="sans-serif" font-size="14" font-style="italic" lengthAdjust="spacing" textLength="49.041" x="858.48" y="144.292">&#171;User&#187;</text><text fill="#000000" font-family="sans-serif" font-size="14" lengthAdjust="spacing" textLength="45.2676" x="860.3667" y="160.5889">User 2</text></g><!--entity User3--><g class="entity" data-entity="User3" data-source-line="24" data-uid="ent0006" id="entity_User3"><rect fill="#98FB98" height="52.5938" rx="2.5" ry="2.5" style="stroke:#2F4F4F;stroke-width:0.5;" width="71.041" x="953.48" y="121.2969"/><text fill="#000000" font-family="sans-serif" font-size="14" font-style="italic" lengthAdjust="spacing" textLength="49.041" x="964.48" y="144.292">&#171;User&#187;</text><text fill="#000000" font-family="sans-serif" font-size="14" lengthAdjust="spacing" textLength="45.2676" x="966.3667" y="160.5889">User 3</text></g><!--entity User1Workspace--><g class="entity" data-entity="User1Workspace" data-source-line="30" data-uid="ent0009" id="entity_User1Workspace"><rect fill="#87CEEB" height="52.5938" rx="2.5" ry="2.5" style="stroke:#2F4F4F;stroke-width:0.5;" width="143.2109" x="342.39" y="334.8969"/><text fill="#000000" font-family="sans-serif" font-size="14" font-style="italic" lengthAdjust="spacing" textLength="51.7891" x="388.1009" y="357.892">&#171;Fleet&#187;</text><text fill="#000000" font-family="sans-serif" font-size="14" lengthAdjust="spacing" textLength="123.2109" x="352.39" y="374.1889">User1-Workspace</text></g><g class="entity" data-entity="GMN10" data-source-line="31" data-uid="ent0011" id="entity_GMN10"><path d="M520.59,333.4969 L520.59,357.7469 L485.87,361.7469 L520.59,365.7469 L520.59,388.8953 A0,0 0 0 0 520.59,388.8953 L699.4054,388.8953 A0,0 0 0 0 699.4054,388.8953 L699.4054,343.4969 L689.4054,333.4969 L520.59,333.4969 A0,0 0 0 0 520.59,333.4969" fill="#FAFAD2" style="stroke:#FF8C00;stroke-width:0.5;"/><path d="M689.4054,333.4969 L689.4054,343.4969 L699.4054,343.4969 L689.4054,333.4969" fill="#FAFAD2" style="stroke:#FF8C00;stroke-width:0.5;"/><text fill="#000000" font-family="sans-serif" font-size="13" lengthAdjust="spacing" textLength="107.4658" x="526.59" y="350.5638">Owned by User1</text><text fill="#000000" font-family="sans-serif" font-size="13" lengthAdjust="spacing" textLength="157.8154" x="526.59" y="365.6966">User2 has admin access</text><text fill="#000000" font-family="sans-serif" font-size="13" lengthAdjust="spacing" textLength="147.0181" x="526.59" y="380.8294">User3 has view access</text></g><!--entity GitRepo1_1--><g class="entity" data-entity="GitRepo1_1" data-source-line="35" data-uid="ent0014" id="entity_GitRepo1_1"><rect fill="#FFA07A" height="52.5938" rx="2.5" ry="2.5" style="stroke:#2F4F4F;stroke-width:0.5;" width="89.3779" x="94.31" y="334.8969"/><text fill="#000000" font-family="sans-serif" font-size="14" font-style="italic" lengthAdjust="spacing" textLength="64.5586" x="106.7197" y="357.892">&#171;GitOps&#187;</text><text fill="#000000" font-family="sans-serif" font-size="14" lengthAdjust="spacing" textLength="69.3779" x="104.31" y="374.1889">GitRepo 1</text></g><!--entity GitRepo1_2--><g class="entity" data-entity="GitRepo1_2" data-source-line="36" data-uid="ent0015" id="entity_GitRepo1_2"><rect fill="#FFA07A" height="52.5938" rx="2.5" ry="2.5" style="stroke:#2F4F4F;stroke-width:0.5;" width="89.3779" x="218.31" y="334.8969"/><text fill="#000000" font-family="sans-serif" font-size="14" font-style="italic" lengthAdjust="spacing" textLength="64.5586" x="230.7197" y="357.892">&#171;GitOps&#187;</text><text fill="#000000" font-family="sans-serif" font-size="14" lengthAdjust="spacing" textLength="69.3779" x="228.31" y="374.1889">GitRepo 2</text></g><!--entity ClusterA1--><g class="entity" data-entity="ClusterA1" data-source-line="41" data-uid="ent0017" id="entity_ClusterA1"><rect fill="#FFB6C1" height="52.5938" rx="2.5" ry="2.5" style="stroke:#2F4F4F;stroke-width:0.5;" width="83.7178" x="99.14" y="462.4869"/><text fill="#000000" font-family="sans-serif" font-size="14" font-style="italic" lengthAdjust="spacing" textLength="42.5127" x="119.7425" y="485.482">&#171;K8s&#187;</text><text fill="#000000" font-family="sans-serif" font-size="14" lengthAdjust="spacing" textLength="63.7178" x="109.14" y="501.7789">Cluster A</text></g><!--entity ClusterB1--><g class="entity" data-entity="ClusterB1" data-source-line="42" data-uid="ent0018" id="entity_ClusterB1"><rect fill="#FFB6C1" height="52.5938" rx="2.5" ry="2.5" style="stroke:#2F4F4F;stroke-width:0.5;" width="83.7451" x="218.13" y="462.4869"/><text fill="#000000" font-family="sans-serif" font-size="14" font-style="italic" lengthAdjust="spacing" textLength="42.5127" x="238.7462" y="485.482">&#171;K8s&#187;</text><text fill="#000000" font-family="sans-serif" font-size="14" lengthAdjust="spacing" textLength="63.7451" x="228.13" y="501.7789">Cluster B</text></g><!--entity User2Workspace--><g class="entity" data-entity="User2Workspace" data-source-line="47" data-uid="ent0020" id="entity_User2Workspace"><rect fill="#87CEEB" height="52.5938" rx="2.5" ry="2.5" style="stroke:#2F4F4F;stroke-width:0.5;" width="143.2109" x="1724.39" y="334.8969"/><text fill="#000000" font-family="sans-serif" font-size="14" font-style="italic" lengthAdjust="spacing" textLength="51.7891" x="1770.1009" y="357.892">&#171;Fleet&#187;</text><text fill="#000000" font-family="sans-serif" font-size="14" lengthAdjust="spacing" textLength="123.2109" x="1734.39" y="374.1889">User2-Workspace</text></g><g class="entity" data-entity="GMN21" data-source-line="48" data-uid="ent0022" id="entity_GMN21"><path d="M1902.83,341.0569 L1902.83,357.7469 L1868.06,361.7469 L1902.83,365.7469 L1902.83,381.3225 A0,0 0 0 0 1902.83,381.3225 L2079.1698,381.3225 A0,0 0 0 0 2079.1698,381.3225 L2079.1698,351.0569 L2069.1698,341.0569 L1902.83,341.0569 A0,0 0 0 0 1902.83,341.0569" fill="#FAFAD2" style="stroke:#FF8C00;stroke-width:0.5;"/><path d="M2069.1698,341.0569 L2069.1698,351.0569 L2079.1698,351.0569 L2069.1698,341.0569" fill="#FAFAD2" style="stroke:#FF8C00;stroke-width:0.5;"/><text fill="#000000" font-family="sans-serif" font-size="13" lengthAdjust="spacing" textLength="107.4658" x="1908.83" y="358.1238">Owned by User2</text><text fill="#000000" font-family="sans-serif" font-size="13" lengthAdjust="spacing" textLength="155.3398" x="1908.83" y="373.2566">User3 has editor access</text></g><!--entity GitRepo2_1--><g class="entity" data-entity="GitRepo2_1" data-source-line="52" data-uid="ent0025" id="entity_GitRepo2_1"><rect fill="#FFA07A" height="52.5938" rx="2.5" ry="2.5" style="stroke:#2F4F4F;stroke-width:0.5;" width="89.3779" x="1352.31" y="334.8969"/><text fill="#000000" font-family="sans-serif" font-size="14" font-style="italic" lengthAdjust="spacing" textLength="64.5586" x="1364.7197" y="357.892">&#171;GitOps&#187;</text><text fill="#000000" font-family="sans-serif" font-size="14" lengthAdjust="spacing" textLength="69.3779" x="1362.31" y="374.1889">GitRepo 1</text></g><!--entity GitRepo2_2--><g class="entity" data-entity="GitRepo2_2" data-source-line="53" data-uid="ent0026" id="entity_GitRepo2_2"><rect fill="#FFA07A" height="52.5938" rx="2.5" ry="2.5" style="stroke:#2F4F4F;stroke-width:0.5;" width="89.3779" x="1476.31" y="334.8969"/><text fill="#000000" font-family="sans-serif" font-size="14" font-style="italic" lengthAdjust="spacing" textLength="64.5586" x="1488.7197" y="357.892">&#171;GitOps&#187;</text><text fill="#000000" font-family="sans-serif" font-size="14" lengthAdjust="spacing" textLength="69.3779" x="1486.31" y="374.1889">GitRepo 2</text></g><!--entity GitRepo2_3--><g class="entity" data-entity="GitRepo2_3" data-source-line="54" data-uid="ent0027" id="entity_GitRepo2_3"><rect fill="#FFA07A" height="52.5938" rx="2.5" ry="2.5" style="stroke:#2F4F4F;stroke-width:0.5;" width="89.3779" x="1600.31" y="334.8969"/><text fill="#000000" font-family="sans-serif" font-size="14" font-style="italic" lengthAdjust="spacing" textLength="64.5586" x="1612.7197" y="357.892">&#171;GitOps&#187;</text><text fill="#000000" font-family="sans-serif" font-size="14" lengthAdjust="spacing" textLength="69.3779" x="1610.31" y="374.1889">GitRepo 3</text></g><!--entity ClusterC2--><g class="entity" data-entity="ClusterC2" data-source-line="59" data-uid="ent0029" id="entity_ClusterC2"><rect fill="#FFB6C1" height="52.5938" rx="2.5" ry="2.5" style="stroke:#2F4F4F;stroke-width:0.5;" width="83.916" x="1479.04" y="462.4869"/><text fill="#000000" font-family="sans-serif" font-size="14" font-style="italic" lengthAdjust="spacing" textLength="42.5127" x="1499.7417" y="485.482">&#171;K8s&#187;</text><text fill="#000000" font-family="sans-serif" font-size="14" lengthAdjust="spacing" textLength="63.916" x="1489.04" y="501.7789">Cluster C</text></g><!--entity User3Workspace--><g class="entity" data-entity="User3Workspace" data-source-line="64" data-uid="ent0031" id="entity_User3Workspace"><rect fill="#87CEEB" height="52.5938" rx="2.5" ry="2.5" style="stroke:#2F4F4F;stroke-width:0.5;" width="143.2109" x="917.39" y="334.8969"/><text fill="#000000" font-family="sans-serif" font-size="14" font-style="italic" lengthAdjust="spacing" textLength="51.7891" x="963.1009" y="357.892">&#171;Fleet&#187;</text><text fill="#000000" font-family="sans-serif" font-size="14" lengthAdjust="spacing" textLength="123.2109" x="927.39" y="374.1889">User3-Workspace</text></g><g class="entity" data-entity="GMN32" data-source-line="65" data-uid="ent0033" id="entity_GMN32"><path d="M1095.83,341.0569 L1095.83,357.7469 L1061.06,361.7469 L1095.83,365.7469 L1095.83,381.3225 A0,0 0 0 0 1095.83,381.3225 L1272.1698,381.3225 A0,0 0 0 0 1272.1698,381.3225 L1272.1698,351.0569 L1262.1698,341.0569 L1095.83,341.0569 A0,0 0 0 0 1095.83,341.0569" fill="#FAFAD2" style="stroke:#FF8C00;stroke-width:0.5;"/><path d="M1262.1698,341.0569 L1262.1698,351.0569 L1272.1698,351.0569 L1262.1698,341.0569" fill="#FAFAD2" style="stroke:#FF8C00;stroke-width:0.5;"/><text fill="#000000" font-family="sans-serif" font-size="13" lengthAdjust="spacing" textLength="107.4658" x="1101.83" y="358.1238">Owned by User3</text><text fill="#000000" font-family="sans-serif" font-size="13" lengthAdjust="spacing" textLength="155.3398" x="1101.83" y="373.2566">User1 has editor access</text></g><!--entity GitRepo3_1--><g class="entity" data-entity="GitRepo3_1" data-source-line="69" data-uid="ent0036" id="entity_GitRepo3_1"><rect fill="#FFA07A" height="52.5938" rx="2.5" ry="2.5" style="stroke:#2F4F4F;stroke-width:0.5;" width="89.3779" x="786.31" y="334.8969"/><text fill="#000000" font-family="sans-serif" font-size="14" font-style="italic" lengthAdjust="spacing" textLength="64.5586" x="798.7197" y="357.892">&#171;GitOps&#187;</text><text fill="#000000" font-family="sans-serif" font-size="14" lengthAdjust="spacing" textLength="69.3779" x="796.31" y="374.1889">GitRepo 1</text></g><!--entity ClusterD3--><g class="entity" data-entity="ClusterD3" data-source-line="74" data-uid="ent0038" id="entity_ClusterD3"><rect fill="#FFB6C1" height="52.5938" rx="2.5" ry="2.5" style="stroke:#2F4F4F;stroke-width:0.5;" width="84.9209" x="779.54" y="462.4869"/><text fill="#000000" font-family="sans-serif" font-size="14" font-style="italic" lengthAdjust="spacing" textLength="42.5127" x="800.7441" y="485.482">&#171;K8s&#187;</text><text fill="#000000" font-family="sans-serif" font-size="14" lengthAdjust="spacing" textLength="64.9209" x="789.54" y="501.7789">Cluster D</text></g><!--entity ClusterE3--><g class="entity" data-entity="ClusterE3" data-source-line="75" data-uid="ent0039" id="entity_ClusterE3"><rect fill="#FFB6C1" height="52.5938" rx="2.5" ry="2.5" style="stroke:#2F4F4F;stroke-width:0.5;" width="82.9863" x="899.51" y="462.4869"/><text fill="#000000" font-family="sans-serif" font-size="14" font-style="italic" lengthAdjust="spacing" textLength="42.5127" x="919.7468" y="485.482">&#171;K8s&#187;</text><text fill="#000000" font-family="sans-serif" font-size="14" lengthAdjust="spacing" textLength="62.9863" x="909.51" y="501.7789">Cluster E</text></g><g class="entity" data-entity="GMN54" data-source-line="101" data-uid="ent0055" id="entity_GMN54"><path d="M778.77,619.0869 L778.77,704.7509 A0,0 0 0 0 778.77,704.7509 L1103.2324,704.7509 A0,0 0 0 0 1103.2324,704.7509 L1103.2324,629.0869 L1093.2324,619.0869 L945,619.0869 L941,515.4569 L937,619.0869 L778.77,619.0869 A0,0 0 0 0 778.77,619.0869" fill="#FAFAD2" style="stroke:#FF8C00;stroke-width:0.5;"/><path d="M1093.2324,619.0869 L1093.2324,629.0869 L1103.2324,629.0869 L1093.2324,619.0869" fill="#FAFAD2" style="stroke:#FF8C00;stroke-width:0.5;"/><text fill="#000000" font-family="sans-serif" font-size="13" lengthAdjust="spacing" textLength="81.5103" x="784.77" y="636.1538">Implements:</text><text fill="#000000" font-family="sans-serif" font-size="13" lengthAdjust="spacing" textLength="303.4624" x="784.77" y="651.2866">- Automatic Fleet Workspace creation per user</text><text fill="#000000" font-family="sans-serif" font-size="13" lengthAdjust="spacing" textLength="255.8804" x="784.77" y="666.4194">- Role-based access across workspaces</text><text fill="#000000" font-family="sans-serif" font-size="13" lengthAdjust="spacing" textLength="285.4604" x="784.77" y="681.5522">- GitOps-based deployments to K8s clusters</text><text fill="#000000" font-family="sans-serif" font-size="13" lengthAdjust="spacing" textLength="197.7358" x="784.77" y="696.685">- CRD for provisioning clusters</text></g><!--link User1 to User1Workspace--><g class="link" data-entity-1="User1" data-entity-2="User1Workspace" data-source-line="82" data-uid="lnk40" id="link_User1_User1Workspace"><path d="M741.26,147.7469 C643.37,147.7469 378.2,147.7469 378.2,147.7469 C378.2,147.7469 378.2,271.3769 378.2,328.5869" fill="none" id="User1-to-User1Workspace" style="stroke:#008000;stroke-width:2;"/><polygon fill="#008000" points="378.2,334.5869,382.2,325.5869,378.2,329.5869,374.2,325.5869,378.2,334.5869" style="stroke:#008000;stroke-width:2;"/><text fill="#000000" font-family="sans-serif" font-size="13" lengthAdjust="spacing" textLength="33.5981" x="432.31" y="143.8138">owns</text></g><!--link User2 to User2Workspace--><g class="link" data-entity-1="User2" data-entity-2="User2Workspace" data-source-line="83" data-uid="lnk41" id="link_User2_User2Workspace"><path d="M908.45,174.0569 C908.45,189.8069 908.45,206.7469 908.45,206.7469 C908.45,206.7469 1772.13,206.7469 1772.13,206.7469 C1772.13,206.7469 1772.13,284.4869 1772.13,328.6469" fill="none" id="User2-to-User2Workspace" style="stroke:#008000;stroke-width:2;"/><polygon fill="#008000" points="1772.13,334.6469,1776.13,325.6469,1772.13,329.6469,1768.13,325.6469,1772.13,334.6469" style="stroke:#008000;stroke-width:2;"/><text fill="#000000" font-family="sans-serif" font-size="13" lengthAdjust="spacing" textLength="33.5981" x="1353.89" y="202.8138">owns</text></g><!--link User3 to User3Workspace--><g class="link" data-entity-1="User3" data-entity-2="User3Workspace" data-source-line="84" data-uid="lnk42" id="link_User3_User3Workspace"><path d="M1000.84,174.2169 C1000.84,215.2569 1000.84,287.5269 1000.84,328.5769" fill="none" id="User3-to-User3Workspace" style="stroke:#008000;stroke-width:2;"/><polygon fill="#008000" points="1000.84,334.5769,1004.84,325.5769,1000.84,329.5769,996.84,325.5769,1000.84,334.5769" style="stroke:#008000;stroke-width:2;"/><text fill="#000000" font-family="sans-serif" font-size="13" lengthAdjust="spacing" textLength="33.5981" x="966.84" y="250.4638">owns</text></g><!--link User1 to User3Workspace--><g class="link" data-entity-1="User1" data-entity-2="User3Workspace" data-source-line="87" data-uid="lnk43" id="link_User1_User3Workspace"><path d="M799.42,174.0969 C799.42,218.1669 799.42,301.7469 799.42,301.7469 C799.42,301.7469 936,301.7469 936,301.7469 C936,301.7469 936,312.7669 936,328.5969" fill="none" id="User1-to-User3Workspace" style="stroke:#0000FF;stroke-width:1;"/><polygon fill="#0000FF" points="936,334.5969,940,325.5969,936,329.5969,932,325.5969,936,334.5969" style="stroke:#0000FF;stroke-width:1;"/><text fill="#000000" font-family="sans-serif" font-size="13" lengthAdjust="spacing" textLength="113.3057" x="706.31" y="297.8138">has editor access</text></g><!--link User2 to User1Workspace--><g class="link" data-entity-1="User2" data-entity-2="User1Workspace" data-source-line="88" data-uid="lnk44" id="link_User2_User1Workspace"><path d="M861.58,174.1569 C861.58,200.7469 861.58,237.7469 861.58,237.7469 C861.58,237.7469 414,237.7469 414,237.7469 C414,237.7469 414,292.0969 414,328.4069" fill="none" id="User2-to-User1Workspace" style="stroke:#800080;stroke-width:1;"/><polygon fill="#800080" points="414,334.4069,418,325.4069,414,329.4069,410,325.4069,414,334.4069" style="stroke:#800080;stroke-width:1;"/><text fill="#000000" font-family="sans-serif" font-size="13" lengthAdjust="spacing" textLength="115.7813" x="505.26" y="233.8138">has admin access</text></g><!--link User3 to User1Workspace--><g class="link" data-entity-1="User3" data-entity-2="User1Workspace" data-source-line="89" data-uid="lnk45" id="link_User3_User1Workspace"><path d="M977.16,174.1069 C977.16,210.0269 977.16,269.7469 977.16,269.7469 C977.16,269.7469 449.8,269.7469 449.8,269.7469 C449.8,269.7469 449.8,301.7369 449.8,328.7469" fill="none" id="User3-to-User1Workspace" style="stroke:#808080;stroke-width:1;"/><polygon fill="#808080" points="449.8,334.7469,453.8,325.7469,449.8,329.7469,445.8,325.7469,449.8,334.7469" style="stroke:#808080;stroke-width:1;"/><text fill="#000000" font-family="sans-serif" font-size="13" lengthAdjust="spacing" textLength="104.9839" x="623.81" y="265.8138">has view access</text></g><!--link User3 to User2Workspace--><g class="link" data-entity-1="User3" data-entity-2="User2Workspace" data-source-line="90" data-uid="lnk46" id="link_User3_User2Workspace"><path d="M1024.97,147.7469 C1184.44,147.7469 1819.87,147.7469 1819.87,147.7469 C1819.87,147.7469 1819.87,271.3769 1819.87,328.5869" fill="none" id="User3-to-User2Workspace" style="stroke:#0000FF;stroke-width:1;"/><polygon fill="#0000FF" points="1819.87,334.5869,1823.87,325.5869,1819.87,329.5869,1815.87,325.5869,1819.87,334.5869" style="stroke:#0000FF;stroke-width:1;"/><text fill="#000000" font-family="sans-serif" font-size="13" lengthAdjust="spacing" textLength="113.3057" x="1401.84" y="143.8138">has editor access</text></g><!--link GitRepo1_1 to ClusterA1--><g class="link" data-entity-1="GitRepo1_1" data-entity-2="ClusterA1" data-source-line="93" data-uid="lnk47" id="link_GitRepo1_1_ClusterA1"><path d="M141,387.9369 C141,409.7169 141,434.3069 141,456.0769" fill="none" id="GitRepo1_1-to-ClusterA1" style="stroke:#FFA500;stroke-width:1;"/><polygon fill="#FFA500" points="141,462.0769,145,453.0769,141,457.0769,137,453.0769,141,462.0769" style="stroke:#FFA500;stroke-width:1;"/><text fill="#000000" font-family="sans-serif" font-size="13" lengthAdjust="spacing" textLength="67.7168" x="73" y="421.0738">deploys to</text></g><!--link GitRepo1_2 to ClusterB1--><g class="link" data-entity-1="GitRepo1_2" data-entity-2="ClusterB1" data-source-line="94" data-uid="lnk48" id="link_GitRepo1_2_ClusterB1"><path d="M260.09,387.9369 C260.09,409.7169 260.09,434.3069 260.09,456.0769" fill="none" id="GitRepo1_2-to-ClusterB1" style="stroke:#FFA500;stroke-width:1;"/><polygon fill="#FFA500" points="260.09,462.0769,264.09,453.0769,260.09,457.0769,256.09,453.0769,260.09,462.0769" style="stroke:#FFA500;stroke-width:1;"/><text fill="#000000" font-family="sans-serif" font-size="13" lengthAdjust="spacing" textLength="67.7168" x="192.09" y="421.0738">deploys to</text></g><!--link GitRepo2_1 to ClusterC2--><g class="link" data-entity-1="GitRepo2_1" data-entity-2="ClusterC2" data-source-line="95" data-uid="lnk49" id="link_GitRepo2_1_ClusterC2"><path d="M1397,387.8269 C1397,425.4869 1397,489.7469 1397,489.7469 C1397,489.7469 1436.75,489.7469 1472.67,489.7469" fill="none" id="GitRepo2_1-to-ClusterC2" style="stroke:#FFA500;stroke-width:1;"/><polygon fill="#FFA500" points="1478.67,489.7469,1469.67,485.7469,1473.67,489.7469,1469.67,493.7469,1478.67,489.7469" style="stroke:#FFA500;stroke-width:1;"/><text fill="#000000" font-family="sans-serif" font-size="13" lengthAdjust="spacing" textLength="67.7168" x="1329" y="475.6938">deploys to</text></g><!--link GitRepo2_2 to ClusterC2--><g class="link" data-entity-1="GitRepo2_2" data-entity-2="ClusterC2" data-source-line="96" data-uid="lnk50" id="link_GitRepo2_2_ClusterC2"><path d="M1521,387.9369 C1521,409.7169 1521,434.3069 1521,456.0769" fill="none" id="GitRepo2_2-to-ClusterC2" style="stroke:#FFA500;stroke-width:1;"/><polygon fill="#FFA500" points="1521,462.0769,1525,453.0769,1521,457.0769,1517,453.0769,1521,462.0769" style="stroke:#FFA500;stroke-width:1;"/><text fill="#000000" font-family="sans-serif" font-size="13" lengthAdjust="spacing" textLength="67.7168" x="1453" y="421.0738">deploys to</text></g><!--link GitRepo2_3 to ClusterC2--><g class="link" data-entity-1="GitRepo2_3" data-entity-2="ClusterC2" data-source-line="97" data-uid="lnk51" id="link_GitRepo2_3_ClusterC2"><path d="M1645,387.8269 C1645,425.4869 1645,489.7469 1645,489.7469 C1645,489.7469 1605.25,489.7469 1569.33,489.7469" fill="none" id="GitRepo2_3-to-ClusterC2" style="stroke:#FFA500;stroke-width:1;"/><polygon fill="#FFA500" points="1563.33,489.7469,1572.33,493.7469,1568.33,489.7469,1572.33,485.7469,1563.33,489.7469" style="stroke:#FFA500;stroke-width:1;"/><text fill="#000000" font-family="sans-serif" font-size="13" lengthAdjust="spacing" textLength="67.7168" x="1577" y="475.6938">deploys to</text></g><!--link GitRepo3_1 to ClusterD3--><g class="link" data-entity-1="GitRepo3_1" data-entity-2="ClusterD3" data-source-line="98" data-uid="lnk52" id="link_GitRepo3_1_ClusterD3"><path d="M825.39,387.9369 C825.39,409.7169 825.39,434.3069 825.39,456.0769" fill="none" id="GitRepo3_1-to-ClusterD3" style="stroke:#FFA500;stroke-width:1;"/><polygon fill="#FFA500" points="825.39,462.0769,829.39,453.0769,825.39,457.0769,821.39,453.0769,825.39,462.0769" style="stroke:#FFA500;stroke-width:1;"/><text fill="#000000" font-family="sans-serif" font-size="13" lengthAdjust="spacing" textLength="67.7168" x="757.39" y="421.0738">deploys to</text></g><!--link GitRepo3_1 to ClusterE3--><g class="link" data-entity-1="GitRepo3_1" data-entity-2="ClusterE3" data-source-line="99" data-uid="lnk53" id="link_GitRepo3_1_ClusterE3"><path d="M870.07,387.8269 C870.07,425.4869 870.07,489.7469 870.07,489.7469 C870.07,489.7469 877.89,489.7469 893.33,489.7469" fill="none" id="GitRepo3_1-to-ClusterE3" style="stroke:#FFA500;stroke-width:1;"/><polygon fill="#FFA500" points="899.33,489.7469,890.33,485.7469,894.33,489.7469,890.33,493.7469,899.33,489.7469" style="stroke:#FFA500;stroke-width:1;"/><text fill="#000000" font-family="sans-serif" font-size="13" lengthAdjust="spacing" textLength="67.7168" x="802.07" y="449.4838">deploys to</text></g><!--SRC=[dPR1RXiX48Rl-nIZzf1BVJ1SgYYA5DjfLBLL8aTLLJLLXNUfJRs65OjZkLNUlGEBCLwpLjQNH8R_7sQ6Ru5wAMJ5D5k1vhbXSbvo-9S1Z5Y-d6krbiLObKfVNNsjkRw-XWTMyZlDkKnfFfIS6nGzBhUZSirJaZjXxgiQDP_5V64UMRbIoL2VtWVHWv3Bx2NBwf2gL2QPPQE_KsN1vLGLttbPgesLALrmtKWcJ2_lDHRA3sEMGdAphJWeRHOgcfYrrlYs48P7yw5lxLKUIsQmLsoRPKOOxEkTqkAlaWLyOPBD-OfB0pSwj_5oizOyoofS2sVWpPJ9VC5rh7p0SB-LNhq1LeEV_p9V6TU82xizDPHiopN-377Si7Cq0gk5QAkT08P1COJTJYU590Z9QI4DGXeBiUEOgyC4DaelQqoK-xG1uiGRpRUWSV7SuAw8Wng75tvsRzaxXjvnbEPmSAXsOs480j3UxR3J5Z5GlrlYIxZVI5x0RDjCFCccImiCougLaC1oBADkngaRVnPyuuVz2lxVHVELGANL7you1hJlgWnjyzhG1kzvy1vNK3Esh_-W0pWvvPNok-z_3NzP17PVwIaRERIHOzjBgohyfY4lrxMn9Bwc96iOUuDRRVUZeo8_3JUn-COMv8wJKvPHR1crBKqbpTzZ-CWf-4WNV2G17-a37-c2ZyIGyK8OF93wO4REmupqm8oSXnb9OPQqqKCRFOzESXQTv3ITurWy9hrGewTGerseqGHgj0zgj0irsg0sF1SrUXvgj0TgD8NQQpQVdhNvzFJcJsBnXBxcQBgDBRUqavSN-w2vSAbZ67mj22NhXS0EReHPW5bmeQDRDsisRl3ZxTo-vzxDyDdqSt1zTA-fZMoq9AqbAIrDQsbRY_cEjQhhmTfctP1pcFm-pHa-ALE1Zj4BsLPhNPKyLLNxNewpPjikHtnZ1qES5pcP5rRhcIvuLQgjVTVLO5H0BujkOOoit3lLnWvtsQMtMbiMNRufzIYf9XsnnoIj9htKj8UQTcGoeNtKjuVgp9rUCsMCMbt2nnNklslpvPCSmCqQHv6jl7s8GgwvOmugvD32QELJLVB1ZDLutdaqMMvfZRuYAslsr0jREniVB5Oxdau0N_7s87mMDIuev3m8_WC0]--></g></svg>